<svg width="18" height="18" viewBox="0 0 18 18" fill="none" xmlns="http://www.w3.org/2000/svg">
<path fill-rule="evenodd" clip-rule="evenodd" d="M5.4975 1.50049H12.5018C15.0525 1.50049 16.4925 2.94724 16.5 5.49799V12.503C16.5 15.053 15.0525 16.5005 12.5018 16.5005H5.4975C2.94675 16.5005 1.5 15.053 1.5 12.503V5.49799C1.5 2.94724 2.94675 1.50049 5.4975 1.50049ZM9.0368 13.3955C9.36005 13.3955 9.6293 13.1555 9.6593 12.833V5.19049C9.6893 4.95799 9.57755 4.72474 9.37505 4.59799C9.1643 4.47049 8.9093 4.47049 8.70755 4.59799C8.5043 4.72474 8.39255 4.95799 8.4143 5.19049V12.833C8.45255 13.1555 8.7218 13.3955 9.0368 13.3955ZM12.4875 13.3955C12.8025 13.3955 13.0718 13.1555 13.11 12.833V10.373C13.1318 10.1322 13.02 9.90799 12.8168 9.78049C12.615 9.65299 12.36 9.65299 12.15 9.78049C11.9468 9.90799 11.835 10.1322 11.865 10.373V12.833C11.8951 13.1555 12.1643 13.3955 12.4875 13.3955ZM6.16427 12.833C6.13427 13.1555 5.86502 13.3955 5.54177 13.3955C5.21927 13.3955 4.94927 13.1555 4.92002 12.833V7.65049C4.89752 7.41724 5.00927 7.18549 5.21252 7.05799C5.41427 6.93049 5.67002 6.93049 5.87252 7.05799C6.07427 7.18549 6.18752 7.41724 6.16427 7.65049V12.833Z" fill="#707FDD"/>
</svg>
