<svg width="18" height="18" viewBox="0 0 18 18" fill="none" xmlns="http://www.w3.org/2000/svg">
<path fill-rule="evenodd" clip-rule="evenodd" d="M5.7525 1.49951H12.255C14.7975 1.49951 16.5 3.28451 16.5 5.93951V12.0678C16.5 14.7153 14.7975 16.4995 12.255 16.4995H5.7525C3.21 16.4995 1.5 14.7153 1.5 12.0678V5.93951C1.5 3.28451 3.21 1.49951 5.7525 1.49951ZM8.99256 6.79528C8.64006 6.79528 8.34756 6.50203 8.34756 6.14278C8.34756 5.77527 8.64006 5.48277 9.00756 5.48277C9.36756 5.48277 9.66006 5.77527 9.66006 6.14278C9.66006 6.50203 9.36756 6.79528 8.99256 6.79528ZM9.65244 11.8353C9.65244 12.1953 9.35994 12.4878 8.99244 12.4878C8.63244 12.4878 8.33994 12.1953 8.33994 11.8353V8.52025C8.33994 8.1595 8.63244 7.86025 8.99244 7.86025C9.35994 7.86025 9.65244 8.1595 9.65244 8.52025V11.8353Z" fill="#A6ABC8"/>
</svg>
