<svg width="18" height="18" viewBox="0 0 18 18" fill="none" xmlns="http://www.w3.org/2000/svg">
<path d="M6.3 0C5.82261 0 5.36477 0.189642 5.02721 0.527208C4.68964 0.864773 4.5 1.32261 4.5 1.8H12.6C13.0774 1.8 13.5352 1.98964 13.8728 2.32721C14.2104 2.66477 14.4 3.12261 14.4 3.6V14.4C14.8774 14.4 15.3352 14.2104 15.6728 13.8728C16.0104 13.5352 16.2 13.0774 16.2 12.6V1.8C16.2 1.32261 16.0104 0.864773 15.6728 0.527208C15.3352 0.189642 14.8774 0 14.4 0L6.3 0Z" fill="#A6ABC8"/>
<path d="M11.7008 18.0002C12.1782 18.0002 12.636 17.8106 12.9736 17.473C13.3111 17.1354 13.5008 16.6776 13.5008 16.2002V4.5002C13.5008 4.02281 13.3111 3.56497 12.9736 3.2274C12.636 2.88984 12.1782 2.7002 11.7008 2.7002H3.60078C3.12339 2.7002 2.66555 2.88984 2.32799 3.2274C1.99042 3.56497 1.80078 4.02281 1.80078 4.5002V16.2002C1.80078 16.6776 1.99042 17.1354 2.32799 17.473C2.66555 17.8106 3.12339 18.0002 3.60078 18.0002H11.7008ZM8.10078 4.5002H11.7008V9.0002H8.10078V4.5002ZM3.60078 4.5002H7.20078V5.4002H3.60078V4.5002ZM3.60078 6.3002H7.20078V7.2002H3.60078V6.3002ZM3.60078 8.10019H7.20078V9.0002H3.60078V8.10019ZM3.60078 9.9002H11.7008V10.8002H3.60078V9.9002ZM3.60078 11.7002H11.7008V12.6002H3.60078V11.7002ZM3.60078 13.5002H11.7008V14.4002H3.60078V13.5002Z" fill="#A6ABC8"/>
</svg>
