<svg width="18" height="18" viewBox="0 0 18 18" fill="none" xmlns="http://www.w3.org/2000/svg">
<path fill-rule="evenodd" clip-rule="evenodd" d="M15.3018 10.185C15.57 10.3275 15.777 10.5525 15.9226 10.7775C16.2062 11.2425 16.1832 11.8125 15.9073 12.315L15.3707 13.215C15.0871 13.695 14.5583 13.995 14.0141 13.995C13.7458 13.995 13.4469 13.92 13.2016 13.77C13.0024 13.6425 12.7724 13.5975 12.5271 13.5975C11.7683 13.5975 11.1322 14.22 11.1092 14.9625C11.1092 15.825 10.404 16.5 9.52259 16.5H8.48019C7.59109 16.5 6.88594 15.825 6.88594 14.9625C6.87061 14.22 6.23444 13.5975 5.47564 13.5975C5.2227 13.5975 4.99276 13.6425 4.80115 13.77C4.55588 13.92 4.24929 13.995 3.98869 13.995C3.43683 13.995 2.90797 13.695 2.62438 13.215L2.09551 12.315C1.81192 11.8275 1.79659 11.2425 2.08019 10.7775C2.20282 10.5525 2.43276 10.3275 2.69336 10.185C2.90797 10.08 3.04594 9.9075 3.17623 9.705C3.55947 9.06 3.32953 8.2125 2.67803 7.83C1.91923 7.4025 1.67396 6.45 2.11084 5.7075L2.62438 4.8225C3.06893 4.08 4.01935 3.8175 4.78582 4.2525C5.45264 4.6125 6.31875 4.3725 6.70965 3.735C6.83229 3.525 6.90127 3.3 6.88594 3.075C6.87061 2.7825 6.95492 2.505 7.10055 2.28C7.38414 1.815 7.89768 1.515 8.4572 1.5H9.53792C10.1051 1.5 10.6186 1.815 10.9022 2.28C11.0402 2.505 11.1322 2.7825 11.1092 3.075C11.0938 3.3 11.1628 3.525 11.2855 3.735C11.6764 4.3725 12.5425 4.6125 13.217 4.2525C13.9758 3.8175 14.9339 4.08 15.3707 4.8225L15.8843 5.7075C16.3288 6.45 16.0836 7.4025 15.3171 7.83C14.6656 8.2125 14.4356 9.06 14.8265 9.705C14.9492 9.9075 15.0871 10.08 15.3018 10.185ZM6.83221 9.0075C6.83221 10.185 7.80562 11.1225 9.00898 11.1225C10.2123 11.1225 11.1628 10.185 11.1628 9.0075C11.1628 7.83 10.2123 6.885 9.00898 6.885C7.80562 6.885 6.83221 7.83 6.83221 9.0075Z" fill="#A6ABC8"/>
</svg>
